PathFileType	4	(X/Y/Z)	pose_F01_0-94.trc
DataRate	CameraRate	NumFrames	NumMarkers	Units	OrigDataRate	OrigDataStartFrame	OrigNumFrames
30	30	13	21	m	30	18	94
Frame#	Time	CHip			RHip			RKnee			RAnkle			RBigToe			RSmallToe			RHeel			LHip			LKnee			LAnkle			LBigToe			LSmallToe			LHeel			Neck			Nose			RShoulder			RElbow			RWrist			LShoulder			LElbow			LWrist			
		X1	Y1	Z1	X2	Y2	Z2	X3	Y3	Z3	X4	Y4	Z4	X5	Y5	Z5	X6	Y6	Z6	X7	Y7	Z7	X8	Y8	Z8	X9	Y9	Z9	X10	Y10	Z10	X11	Y11	Z11	X12	Y12	Z12	X13	Y13	Z13	X14	Y14	Z14	X15	Y15	Z15	X16	Y16	Z16	X17	Y17	Z17	X18	Y18	Z18	X19	Y19	Z19	X20	Y20	Z20	X21	Y21	Z21	
18	0.6	-0.24153361460515665	1.8291005241766833	-0.4643695752783927	-0.2557106655202823	1.8275184809775715	-0.4077277669443967																-0.22811427839331064	1.8314681958898877	-0.5276080115355137	-0.23937997599909785	1.7173009634410286	-0.48997619854701074													-1.744400591333927	1.8900298558952635	1.1768591123878875	-0.24722244422886547	2.0391032424555533	-0.518990410444744	-0.25212935345577764	1.9780617682664419	-0.3962286755991442	-0.2590448439379909	1.8982396836386535	-0.3443856382605678	-0.2687299647534027	1.8297034925289686	-0.342316644139196	-0.21001423923587262	1.9828816662679092	-0.5816248906007111	-0.2080240507476982	1.9025900605414023	-0.5953373888219975	-0.2105753751273947	1.8315644889396636	-0.5982754789856014
19	0.6333333333333333	-0.245693605173784	1.8269950723331303	-0.4594283037280796	-0.2616215776904972	1.8264143981563687	-0.400743791527134																-0.23443085621961746	1.8304818536541916	-0.520473502676953	-0.23937997599909785	1.7173009634410286	-0.48997619854701074													-1.7564935201290441	1.8899093553441393	1.1964194049493797	-0.2520796810182454	2.0414814789834064	-0.5180901593785219	-0.25597498492615933	1.977619867504045	-0.3918120125325863	-0.2622789070550126	1.8976892370418024	-0.3451538429636349	-0.2746944209964451	1.8258056341229536	-0.3351704441294721	-0.2162099377130597	1.9815918246088071	-0.5744870271648985	-0.2093368783443954	1.9015032763512003	-0.5897123013763655	-0.21709123746923117	1.829039969257422	-0.5912539157264737
20	0.6666666666666666	-0.24959011408815077	1.8285281121094894	-0.4552713818067421	-0.263506527647228	1.8281098564169023	-0.3987338606432888																-0.2354953270050667	1.832302528651987	-0.515324881460069	-0.23937997599909785	1.7173009634410286	-0.48997619854701074													-1.7591077420564925	1.8898685848478767	1.199519163717075	-0.2540458133632431	2.04254364026966	-0.5158199579252127	-0.2597168592059974	1.9800855857970157	-0.3877102802312189	-0.2692647659138239	1.9005423552746368	-0.3367805081751039	-0.28173855938879816	1.832640913040345	-0.33638828480394345	-0.218395779851737	1.9826933844239119	-0.5724997737527003	-0.20941371694949273	1.9023208115769854	-0.5812903507400917	-0.220744838026166	1.8322135554533918	-0.587164232574243
21	0.7	-0.25322529047899683	1.8309725080150925	-0.4511241808738107	-0.26714175412771507	1.8290202127753148	-0.3945345139811064																-0.23819391299470422	1.833001560210081	-0.5079867279767969	-0.23937997599909785	1.7173009634410286	-0.48997619854701074													-0.2473273374220252	1.9818474458342454	-0.4725037382606988	-0.2560594242954938	2.044278287735958	-0.5141695625856815	-0.26537870025931115	1.9819069602320278	-0.3816512588687272	-0.274554541028569	1.8994843835458541	-0.3215687165239793	-0.2842955322966892	1.8325757334471604	-0.35192433349051094	-0.22243248537668298	1.9837786644830833	-0.5677790668810847	-0.20643754829103234	1.9052205787456251	-0.5806274791672972	-0.22596422835226698	1.8355118982460419	-0.5864045606469087
22	0.7333333333333333	-0.2579403921730526	1.8265449603821056	-0.44069984850352356	-0.26877641412232506	1.8292477047805336	-0.383306581834164																-0.24633490540881683	1.8302991806053164	-0.4984727355919343	-0.23937997599909785	1.7173009634410286	-0.48997619854701074													-1.7768247585716952	1.8918189577487832	1.2267032872854888	-0.2598605315022498	2.0458182602380917	-0.5097210918585109	-0.2663450675077056	1.9831032085973483	-0.3766912322843717	-0.2805130522963696	1.909036492321264	-0.30253112591291687	-0.2739796589648774	1.8656446812680996	-0.3591941052504248	-0.22571287987659713	1.983808329699407	-0.5516527420880987	-0.20826513464494828	1.9126925310911054	-0.5793383392057525	-0.24083581720045175	1.85849489774485	-0.5941565314140131
23	0.7666666666666667	-0.2579437179767332	1.8296639125290222	-0.4408748393481487	-0.27041107411693505	1.8294751967857523	-0.37207864968722154																-0.24618715428553542	1.8323427602966422	-0.49880545890746053	-0.23937997599909785	1.7173009634410286	-0.48997619854701074													-0.2512405823095502	1.984171827352739	-0.4598569580284458	-0.26103168241741703	2.0482777885584227	-0.5054392759832277	-0.27189633364588794	1.9852423245209294	-0.3706796712821601	-0.28436821776113375	1.9078388302292277	-0.298247631510577	-0.2757403343170429	1.9051291927450946	-0.38894505295891707	-0.22683040114253145	1.9839538879088332	-0.5461671059843194	-0.20754722830800207	1.9197674074772468	-0.5766775330142655	-0.24048779627183842	1.891669504026145	-0.5734370868365329
24	0.8	-0.2579155208053644	1.8338796186197373	-0.44166090876835107	-0.2726705948181268	1.8327982117091324	-0.3792801570488005																-0.24611973584667574	1.8370254781837947	-0.49938753588565193	-0.23937997599909785	1.7173009634410286	-0.48997619854701074													-0.25136484703752127	1.989212603149811	-0.46100484622754356	-0.262923895715281	2.047980753435637	-0.5032168896124433	-0.27088438075693144	1.988774788030489	-0.36849393777911094	-0.2870527220105377	1.9126288829094615	-0.314762603860062	-0.27750100966920843	1.9446137042220897	-0.41869600066740936	-0.228787575978886	1.9884988895807172	-0.5447078000151879	-0.21394516578783518	1.9172934373666324	-0.5990666650490997	-0.2300792159830179	1.9585697489527263	-0.5880816467057237
25	0.8333333333333334	-0.260148642213228	1.8350915966689252	-0.4394455648112153	-0.27235173615068076	1.833604194119553	-0.3705902837775864																-0.24939459281047807	1.838711881447508	-0.5003439070876385	-0.23937997599909785	1.7173009634410286	-0.48997619854701074													-0.2522004236426692	1.991884514490633	-0.4560727818167629	-0.26294491696390443	2.0478409939926325	-0.5031252315503904	-0.2707001533836755	1.9901997356295347	-0.3683990233009503	-0.2890980645058262	1.9224533009987528	-0.35339241646415936	-0.2769012699493242	1.9827780307515674	-0.44048548195671894	-0.23114016437964827	1.9959887025077871	-0.5359538928550484	-0.22293198298665087	1.9245894965383954	-0.5946661467550737	-0.2631380305733304	1.9856657428121762	-0.558086451173203
26	0.8666666666666667	-0.25982907246693593	1.8344291355111961	-0.43955302674021984	-0.27161290469778576	1.833180824408113	-0.37603233152621013																-0.24823966459816418	1.8396013299019416	-0.4973612199629699	-0.23937997599909785	1.7173009634410286	-0.48997619854701074													-0.2509999250118962	1.9937338678248964	-0.44489089521885383	-0.2619293968475039	2.0503348581961016	-0.5005971851608796	-0.27073289084387536	1.9901992770880537	-0.3684062962472645	-0.2956930007998272	1.9249323504915015	-0.40508639257878026	-1.6989528312676923	1.8886886178944289	1.0728204539541653	-0.2311372597099599	1.9981224268050555	-0.5278037481500086	-0.23404309824164518	1.9372533876301075	-0.5879411353198714	-0.2553512910115072	1.9964758631419335	-0.5351654170656541
27	0.9	-0.2590122779048399	1.8379735366715106	-0.44538060195960216	-0.2735330103179367	1.8351772525316732	-0.38328332271986587																-0.24711519225225875	1.8438091920282451	-0.5032982320811593	-0.23937997599909785	1.7173009634410286	-0.48997619854701074													-0.2508877906138871	1.9948989757438782	-0.4449012235162636	-0.26199802886265705	2.051669181033813	-0.5009598187888242	-0.26888804037654745	1.9924916735068514	-0.3709061166041961	-0.2860167174984191	1.9341572526371293	-0.4089528336926086	-0.27965535562892974	1.9956213309245694	-0.4676347051968591	-0.23112892589195105	1.9981358677676089	-0.5277818885006088	-0.23838878897341653	1.939308853986605	-0.5841108782180414	-0.25694624798543536	1.9988782402490726	-0.5321796112545731
28	0.9333333333333333	-0.2597742591080454	1.8386735634678613	-0.44874430130737286	-0.27440815837392163	1.8355595381636425	-0.3868531455650266																-0.24994016356365018	1.8447840682044574	-0.5133304919525252	-0.23937997599909785	1.7173009634410286	-0.48997619854701074													-0.2520176651738669	1.9940232361142072	-0.4479677193219703	-0.2639517389240481	2.0527692108312405	-0.4993536656365771	-0.2707093780939047	1.9911858352228222	-0.36833587267781615	-0.29067843604038174	1.9305341361731518	-0.4067861396951866	-0.28201560203757636	1.991575065558793	-0.4656131045806012	-0.23007186764484117	1.9988006844162294	-0.5329066076323323	-0.24248449915104608	1.9394014684643743	-0.5796456004588709	-0.2567716230836291	1.9990454678435063	-0.5316504101461276
29	0.9666666666666667	-0.25927694251925026	1.8383889011109167	-0.447191260246802	-0.2744415748692358	1.8342957883958895	-0.38665748298881275																-0.24977675643493572	1.8426318692303023	-0.5131891857099437	-0.23937997599909785	1.7173009634410286	-0.48997619854701074													-0.25103294905898194	1.993798592346023	-0.4447788994832843	-0.26391537799361137	2.051556262920244	-0.49879852798669433	-0.2715449460081884	1.98972029460271	-0.3631598106477313	-0.29080543757403093	1.9306964547125682	-0.3986973856637008	-0.2779065745475352	1.9942376195126637	-0.4537012024725708	-0.22912276737258344	1.9974922030508746	-0.5294083851792173	-0.24251087053766968	1.9390860237525274	-0.5796230689102716	-0.25587060610320195	2.001875807769489	-0.5293652755974861
30	1.0	-0.2587796259304551	1.838104238753972	-0.44563821918623114	-0.27447499136455006	1.8330320386281367	-0.38646182041259897																-0.24892904778334018	1.841945493613	-0.5098128123751142	-0.23937997599909785	1.7173009634410286	-0.48997619854701074													-0.25101172717541015	1.9936986980463993	-0.4447346709863694	-0.2639773683334046	2.0527768212167117	-0.4992609028276607	-0.26985568519756914	1.9886252662566772	-0.36518482132733854	-0.29625546848734424	1.9309337419745212	-0.4067491651121607	-0.279111088277852	1.996300420774448	-0.4577058662488959	-0.23096664703436268	1.9998111530005853	-0.5276631241853205	-0.24249115842532273	1.9399497461368087	-0.5796849209746442	-0.2558741868076425	2.0013986588146424	-0.5293784134525311
